<?xml version="1.0" encoding="UTF-8" standalone="no"?>
<!DOCTYPE svg PUBLIC "-//W3C//DTD SVG 1.1//EN"
 "http://www.w3.org/Graphics/SVG/1.1/DTD/svg11.dtd">
<!-- Generated by graphviz version 2.43.0 (0)
 -->
<!-- Title: eris Pages: 1 -->
<svg width="260pt" height="188pt"
 viewBox="0.00 0.00 260.49 188.00" xmlns="http://www.w3.org/2000/svg" xmlns:xlink="http://www.w3.org/1999/xlink">
<g id="graph0" class="graph" transform="scale(1 1) rotate(0) translate(4 184)">
<title>eris</title>
<polygon fill="white" stroke="transparent" points="-4,4 -4,-184 256.49,-184 256.49,4 -4,4"/>
<!-- core -->
<g id="node1" class="node">
<title>core</title>
<ellipse fill="none" stroke="black" cx="40.95" cy="-18" rx="40.89" ry="18"/>
<text text-anchor="middle" x="40.95" y="-14.3" font-family="Times,serif" font-size="14.00">eris.core</text>
</g>
<!-- array -->
<g id="node2" class="node">
<title>array</title>
<ellipse fill="none" stroke="black" cx="76.95" cy="-90" rx="44.39" ry="18"/>
<text text-anchor="middle" x="76.95" y="-86.3" font-family="Times,serif" font-size="14.00">eris.array</text>
</g>
<!-- array&#45;&gt;core -->
<g id="edge1" class="edge">
<title>array&#45;&gt;core</title>
<path fill="none" stroke="black" d="M68.23,-72.05C64.03,-63.89 58.9,-53.91 54.23,-44.82"/>
<polygon fill="black" stroke="black" points="57.27,-43.08 49.58,-35.79 51.04,-46.28 57.27,-43.08"/>
</g>
<!-- math -->
<g id="node3" class="node">
<title>math</title>
<ellipse fill="none" stroke="black" cx="182.95" cy="-162" rx="44.39" ry="18"/>
<text text-anchor="middle" x="182.95" y="-158.3" font-family="Times,serif" font-size="14.00">eris.math</text>
</g>
<!-- allocator -->
<g id="node4" class="node">
<title>allocator</title>
<ellipse fill="none" stroke="black" cx="195.95" cy="-90" rx="56.59" ry="18"/>
<text text-anchor="middle" x="195.95" y="-86.3" font-family="Times,serif" font-size="14.00">eris.allocator</text>
</g>
<!-- btree -->
<g id="node5" class="node">
<title>btree</title>
<ellipse fill="none" stroke="black" cx="76.95" cy="-162" rx="43.59" ry="18"/>
<text text-anchor="middle" x="76.95" y="-158.3" font-family="Times,serif" font-size="14.00">eris.btree</text>
</g>
<!-- btree&#45;&gt;core -->
<g id="edge4" class="edge">
<title>btree&#45;&gt;core</title>
<path fill="none" stroke="black" d="M55.5,-146.26C43.78,-136.85 30.37,-123.51 23.95,-108 15.57,-87.77 21.33,-63.22 28.33,-45.03"/>
<polygon fill="black" stroke="black" points="31.62,-46.23 32.26,-35.65 25.17,-43.52 31.62,-46.23"/>
</g>
<!-- btree&#45;&gt;array -->
<g id="edge3" class="edge">
<title>btree&#45;&gt;array</title>
<path fill="none" stroke="black" d="M76.95,-143.7C76.95,-135.98 76.95,-126.71 76.95,-118.11"/>
<polygon fill="black" stroke="black" points="80.45,-118.1 76.95,-108.1 73.45,-118.1 80.45,-118.1"/>
</g>
<!-- btree&#45;&gt;allocator -->
<g id="edge2" class="edge">
<title>btree&#45;&gt;allocator</title>
<path fill="none" stroke="black" d="M101.03,-146.83C118.38,-136.63 142.06,-122.7 161.42,-111.31"/>
<polygon fill="black" stroke="black" points="163.41,-114.2 170.25,-106.11 159.86,-108.17 163.41,-114.2"/>
</g>
</g>
</svg>
